<?xml version="1.0" encoding="utf-8"?>
<!-- Generator: Adobe Illustrator 17.1.0, SVG Export Plug-In . SVG Version: 6.00 Build 0)  -->
<!DOCTYPE svg PUBLIC "-//W3C//DTD SVG 1.1//EN" "http://www.w3.org/Graphics/SVG/1.1/DTD/svg11.dtd">
<svg version="1.1" id="圖層_1" xmlns="http://www.w3.org/2000/svg" xmlns:xlink="http://www.w3.org/1999/xlink" x="0px" y="0px"
	 viewBox="0 0 118.1 165.5" enable-background="new 0 0 118.1 165.5" xml:space="preserve">
<g>
	<path fill="#5DC2D0" stroke="#FFFFFF" stroke-miterlimit="10" d="M115.2,154.4c0,6.2-5,11.2-11.2,11.2H14c-6.2,0-11.2-5-11.2-11.2
		V22.7c0-6.2,5-11.2,11.2-11.2h90.1c6.2,0,11.2,5,11.2,11.2V154.4z"/>
	<g>
		<path fill="#5DC2D0" d="M44.4,5.8C44.4,2.6,47,0,50.2,0"/>
		<path fill="#5DC2D0" d="M67.9,11.5h5.8V5.8C73.6,8.9,71.1,11.5,67.9,11.5z"/>
		<path fill="#5DC2D0" d="M44.4,5.8v5.8h5.8C47,11.5,44.4,8.9,44.4,5.8z"/>
		<path fill="#5DC2D0" d="M67.9,0c3.2,0,5.8,2.6,5.8,5.8"/>
		<path fill="#5DC2D0" d="M67.9,0H50.2c-3.2,0-5.8,2.6-5.8,5.8c0,3.2,2.6,5.8,5.8,5.8h17.7c3.2,0,5.8-2.6,5.8-5.8
			C73.6,2.6,71.1,0,67.9,0z"/>
	</g>
	<path fill="#FFFFFF" d="M110.2,148.5c0,5.6-4.5,10.2-10.2,10.2H18c-5.6,0-10.2-4.5-10.2-10.2V28.5c0-5.6,4.5-10.2,10.2-10.2h82.1
		c5.6,0,10.2,4.5,10.2,10.2V148.5z"/>
	<g>
		<g>
			<g>
				<path fill="none" stroke="#9A9B9B" stroke-miterlimit="10" d="M56.2,53H44.1c-0.5,1-0.9,2.1-0.9,3.3c0,3.8,3.1,6.9,6.9,6.9
					c3.8,0,6.9-3.1,6.9-6.9C57.1,55.1,56.8,54,56.2,53z"/>
			</g>
			<g>
				<path fill="#9A9B9B" d="M53.4,53.5h-6.5c-0.3,0.5-0.5,1.1-0.5,1.8c0,2,1.7,3.7,3.7,3.7c2,0,3.7-1.7,3.7-3.7
					C53.9,54.6,53.7,54,53.4,53.5z"/>
			</g>
		</g>
		<g>
			<g>
				<path fill="none" stroke="#9A9B9B" stroke-miterlimit="10" d="M73.9,53H61.8c-0.5,1-0.9,2.1-0.9,3.3c0,3.8,3.1,6.9,6.9,6.9
					c3.8,0,6.9-3.1,6.9-6.9C74.8,55.1,74.5,54,73.9,53z"/>
			</g>
			<g>
				<path fill="#9A9B9B" d="M71.1,53.5h-6.5c-0.3,0.5-0.5,1.1-0.5,1.8c0,2,1.7,3.7,3.7,3.7c2,0,3.7-1.7,3.7-3.7
					C71.6,54.6,71.4,54,71.1,53.5z"/>
			</g>
		</g>
		<line fill="none" stroke="#9A9B9B" stroke-width="2" stroke-miterlimit="10" x1="43.3" y1="50.5" x2="53.9" y2="47.9"/>
		<line fill="none" stroke="#9A9B9B" stroke-width="2" stroke-miterlimit="10" x1="73.2" y1="49.6" x2="62.6" y2="47"/>
	</g>
	<path opacity="0.49" fill="#F3EDAD" d="M7.8,71.4V147c0,0-0.4,11.7,10.2,11.7h82.1c0,0,10.2,1.2,10.2-11.7V49.1
		c0,0-19.8,36.3-60,26C50.2,75.1,7.8,54.1,7.8,71.4z"/>
	<path fill="#5DC2D0" d="M2.8,19.9c0,0,2.2-8.2,8.2-8.5c0,0-7.1,0.4-9.7-6.1C1.3,5.3-2.4,14.6,2.8,19.9z"/>
	<path fill="#5DC2D0" d="M115.3,19.9c0,0-2.2-8.2-8.2-8.5c0,0,7.1,0.4,9.7-6.1C116.8,5.3,120.5,14.6,115.3,19.9z"/>
</g>
</svg>
