<?xml version="1.0" encoding="utf-8"?>
<!-- Generator: Adobe Illustrator 17.1.0, SVG Export Plug-In . SVG Version: 6.00 Build 0)  -->
<!DOCTYPE svg PUBLIC "-//W3C//DTD SVG 1.1//EN" "http://www.w3.org/Graphics/SVG/1.1/DTD/svg11.dtd">
<svg version="1.1" id="圖層_1" xmlns="http://www.w3.org/2000/svg" xmlns:xlink="http://www.w3.org/1999/xlink" x="0px" y="0px"
	 viewBox="0 0 118.1 165.5" enable-background="new 0 0 118.1 165.5" xml:space="preserve">
<path fill="#5DC2D0" stroke="#FFFFFF" stroke-miterlimit="10" d="M114.9,154.4c0,6.2-5,11.2-11.2,11.2H13.7c-6.2,0-11.2-5-11.2-11.2
	V22.7c0-6.2,5-11.2,11.2-11.2h90.1c6.2,0,11.2,5,11.2,11.2V154.4z"/>
<g>
	<path fill="#5DC2D0" d="M44.1,5.8c0-3.2,2.6-5.8,5.8-5.8"/>
	<path fill="#5DC2D0" d="M67.6,11.5h5.8V5.8C73.3,8.9,70.8,11.5,67.6,11.5z"/>
	<path fill="#5DC2D0" d="M44.1,5.8v5.8h5.8C46.7,11.5,44.1,8.9,44.1,5.8z"/>
	<path fill="#5DC2D0" d="M67.6,0c3.2,0,5.8,2.6,5.8,5.8"/>
	<path fill="#5DC2D0" d="M67.6,0H49.9c-3.2,0-5.8,2.6-5.8,5.8c0,3.2,2.6,5.8,5.8,5.8h17.7c3.2,0,5.8-2.6,5.8-5.8
		C73.3,2.6,70.8,0,67.6,0z"/>
</g>
<path fill="#FFFFFF" d="M109.9,148.5c0,5.6-4.5,10.2-10.2,10.2H17.7c-5.6,0-10.2-4.5-10.2-10.2V28.5c0-5.6,4.5-10.2,10.2-10.2h82.1
	c5.6,0,10.2,4.5,10.2,10.2V148.5z"/>
<path opacity="0.33" fill="#F6BBC0" d="M7.6,35.4c0,0,27.2-14.6,57.4-4.5c0,0,41.7,8.6,45-3.4v120.8c0,0-1.7,10.2-10.2,10.2H17.7
	c0,0-10.2-0.6-10.2-10.2V35.4z"/>
<g>
	<path fill="none" stroke="#9A9B9B" stroke-miterlimit="10" d="M57.6,56.1l-10.9-5.2c-0.9,0.7-1.7,1.5-2.2,2.6
		c-1.7,3.4-0.2,7.6,3.2,9.2c3.4,1.7,7.6,0.2,9.2-3.2C57.4,58.4,57.6,57.2,57.6,56.1z"/>
</g>
<g>
	<path fill="#E5435C" d="M56.2,55.5l-5.8-2.8c-0.5,0.4-0.9,0.8-1.2,1.4c-0.9,1.8-0.1,4,1.7,4.9c1.8,0.9,4,0.1,4.9-1.7
		C56.1,56.7,56.2,56.1,56.2,55.5z"/>
</g>
<g>
	<path fill="none" stroke="#9A9B9B" stroke-miterlimit="10" d="M63.6,56.1l10.9-5.2c0.9,0.7,1.7,1.5,2.2,2.6
		c1.7,3.4,0.2,7.6-3.2,9.2c-3.4,1.7-7.6,0.2-9.2-3.2C63.7,58.4,63.5,57.2,63.6,56.1z"/>
</g>
<g>
	<path fill="#E5435C" d="M65,55.5l5.8-2.8c0.5,0.4,0.9,0.8,1.2,1.4c0.9,1.8,0.1,4-1.7,4.9c-1.8,0.9-4,0.1-4.9-1.7
		C65,56.7,64.9,56.1,65,55.5z"/>
</g>
<polygon fill="#9A9B9B" points="44.8,45.6 48.4,43 56.5,50.5 56.5,52.7 "/>
<polygon fill="#9A9B9B" points="75.3,45.6 71.6,43 63.5,50.5 63.5,52.7 "/>
<path fill="#5DC2D0" d="M2.8,20.5c0,0,2.2-8.2,8.2-8.5c0,0-7.1,0.4-9.7-6.1C1.3,5.9-2.4,15.1,2.8,20.5z"/>
<path fill="#5DC2D0" d="M115.3,20.5c0,0-2.2-8.2-8.2-8.5c0,0,7.1,0.4,9.7-6.1C116.8,5.9,120.5,15.1,115.3,20.5z"/>
</svg>
