<?xml version="1.0" encoding="utf-8"?>
<!-- Generator: Adobe Illustrator 17.1.0, SVG Export Plug-In . SVG Version: 6.00 Build 0)  -->
<!DOCTYPE svg PUBLIC "-//W3C//DTD SVG 1.1//EN" "http://www.w3.org/Graphics/SVG/1.1/DTD/svg11.dtd">
<svg version="1.1" id="圖層_1" xmlns="http://www.w3.org/2000/svg" xmlns:xlink="http://www.w3.org/1999/xlink" x="0px" y="0px"
	 viewBox="0 0 118.1 165.5" enable-background="new 0 0 118.1 165.5" xml:space="preserve">
<rect x="-36.7" y="-43.9" fill="none" width="195.2" height="241"/>
<g>
	<path fill="#5DC2D0" stroke="#FFFFFF" stroke-miterlimit="10" d="M115.2,154.4c0,6.2-5,11.2-11.2,11.2H14c-6.2,0-11.2-5-11.2-11.2
		V22.7c0-6.2,5-11.2,11.2-11.2h90.1c6.2,0,11.2,5,11.2,11.2V154.4z"/>
	<g>
		<path fill="#5DC2D0" d="M44.4,5.8C44.4,2.6,47,0,50.2,0"/>
		<path fill="#5DC2D0" d="M67.9,11.5h5.8V5.8C73.6,8.9,71.1,11.5,67.9,11.5z"/>
		<path fill="#5DC2D0" d="M44.4,5.8v5.8h5.8C47,11.5,44.4,8.9,44.4,5.8z"/>
		<path fill="#5DC2D0" d="M67.9,0c3.2,0,5.8,2.6,5.8,5.8"/>
		<path fill="#5DC2D0" d="M67.9,0H50.2c-3.2,0-5.8,2.6-5.8,5.8c0,3.2,2.6,5.8,5.8,5.8h17.7c3.2,0,5.8-2.6,5.8-5.8
			C73.6,2.6,71.1,0,67.9,0z"/>
	</g>
	<path fill="#FFFFFF" d="M110.2,148.5c0,5.6-4.5,10.2-10.2,10.2H18c-5.6,0-10.2-4.5-10.2-10.2V28.5c0-5.6,4.5-10.2,10.2-10.2h82.1
		c5.6,0,10.2,4.5,10.2,10.2V148.5z"/>
	<g>
		<g>
			<circle fill="none" stroke="#9A9B9B" stroke-miterlimit="10" cx="51.4" cy="58.1" r="6.9"/>
			<circle fill="#9A9B9B" cx="51.4" cy="58.1" r="3.5"/>
		</g>
		<g>
			<circle fill="none" stroke="#9A9B9B" stroke-miterlimit="10" cx="69.5" cy="58.1" r="6.9"/>
			<circle fill="#9A9B9B" cx="69.5" cy="58.1" r="3.5"/>
		</g>
		<path fill="none" stroke="#9A9B9B" stroke-width="2" stroke-miterlimit="10" d="M45,48.3c3.5-3.5,9.3-3.5,12.8,0"/>
		<path fill="none" stroke="#9A9B9B" stroke-width="2" stroke-miterlimit="10" d="M63,48.3c3.5-3.5,9.3-3.5,12.8,0"/>
	</g>
	<path opacity="0.68" fill="#C0E1CC" d="M7.8,111.1v37.4c0,0,0.9,10.2,10.2,10.2h82.1c0,0,10.2,0.4,10.2-13V99.9
		c0,0-26.1,22.3-65.7,14.5C44.5,114.4,12.9,102.7,7.8,111.1z"/>
	<path fill="#5DC2D0" d="M2.8,20.5c0,0,2.2-8.2,8.2-8.5c0,0-7.1,0.4-9.7-6.1C1.3,5.9-2.4,15.1,2.8,20.5z"/>
	<path fill="#5DC2D0" d="M115.3,20.5c0,0-2.2-8.2-8.2-8.5c0,0,7.1,0.4,9.7-6.1C116.8,5.9,120.5,15.1,115.3,20.5z"/>
</g>
</svg>
